{
  "accessors": [
    {
      "bufferView": 2,
      "componentType": 5126,
      "count": 65532,
      "max": [
        1.8001863956451416,
        0.8078293204307556,
        19.60247802734375
      ],
      "min": [
        -1.8692656755447388,
        -2.297379970550537,
        15.989208221435547
      ],
      "type": "VEC3"
    },
    {
      "bufferView": 2,
      "byteOffset": 786384,
      "componentType": 5126,
      "count": 65532,
      "max": [
        0.9999851584434509,
        0.9999861121177673,
        0.9999992847442627
      ],
      "min": [
        -0.999885618686676,
        -0.9998263716697693,
        -0.9999733567237854
      ],
      "type": "VEC3"
    },
    {
      "bufferView": 1,
      "componentType": 5126,
      "count": 65532,
      "max": [
        0.9994945526123047,
        0.9780272245407104
      ],
      "min": [
        0.00048828125,
        0.0004915787139907479
      ],
      "type": "VEC2"
    },
    {
      "bufferView": 0,
      "componentType": 5125,
      "count": 281904,
      "type": "SCALAR"
    },
    {
      "bufferView": 2,
      "byteOffset": 1572768,
      "componentType": 5126,
      "count": 65534,
      "max": [
        1.8248422145843506,
        1.1271369457244873,
        19.206361770629883
      ],
      "min": [
        -1.8826736211776733,
        -2.2933878898620605,
        13.21192741394043
      ],
      "type": "VEC3"
    },
    {
      "bufferView": 2,
      "byteOffset": 2359176,
      "componentType": 5126,
      "count": 65534,
      "max": [
        0.9999837875366211,
        0.9999948740005493,
        0.9999774098396301
      ],
      "min": [
        -0.9999698400497437,
        -0.9999685883522034,
        -0.9999999403953552
      ],
      "type": "VEC3"
    },
    {
      "bufferView": 1,
      "byteOffset": 524256,
      "componentType": 5126,
      "count": 65534,
      "max": [
        0.9994965195655823,
        0.9916990995407104
      ],
      "min": [
        0.00048828125,
        0.0004971219459548593
      ],
      "type": "VEC2"
    },
    {
      "bufferView": 0,
      "byteOffset": 1127616,
      "componentType": 5125,
      "count": 285756,
      "type": "SCALAR"
    },
    {
      "bufferView": 2,
      "byteOffset": 3145584,
      "componentType": 5126,
      "count": 65532,
      "max": [
        1.8095829486846924,
        1.0861364603042603,
        19.799997329711914
      ],
      "min": [
        -1.8355919122695923,
        -2.1773908138275146,
        13.212787628173828
      ],
      "type": "VEC3"
    },
    {
      "bufferView": 2,
      "byteOffset": 3931968,
      "componentType": 5126,
      "count": 65532,
      "max": [
        0.9999759793281555,
        0.9999003410339355,
        0.9999753832817078
      ],
      "min": [
        -0.999872624874115,
        -0.9999883770942688,
        -0.9999871850013733
      ],
      "type": "VEC3"
    },
    {
      "bufferView": 1,
      "byteOffset": 1048528,
      "componentType": 5126,
      "count": 65532,
      "max": [
        0.9994059205055237,
        0.9877928495407104
      ],
      "min": [
        0.00048828125,
        0.0005080892005935311
      ],
      "type": "VEC2"
    },
    {
      "bufferView": 0,
      "byteOffset": 2270640,
      "componentType": 5125,
      "count": 259413,
      "type": "SCALAR"
    },
    {
      "bufferView": 2,
      "byteOffset": 4718352,
      "componentType": 5126,
      "count": 20078,
      "max": [
        1.101995587348938,
        1.1274105310440063,
        19.211429595947266
      ],
      "min": [
        -0.29369184374809265,
        -2.2515804767608643,
        13.214402198791504
      ],
      "type": "VEC3"
    },
    {
      "bufferView": 2,
      "byteOffset": 4959288,
      "componentType": 5126,
      "count": 20078,
      "max": [
        0.9996545314788818,
        0.9999279975891113,
        0.9998971819877625
      ],
      "min": [
        -0.9997906684875488,
        -0.9991887211799622,
        -0.9999743700027466
      ],
      "type": "VEC3"
    },
    {
      "bufferView": 1,
      "byteOffset": 1572784,
      "componentType": 5126,
      "count": 20078,
      "max": [
        0.9994913935661316,
        0.9643553495407104
      ],
      "min": [
        0.00048828125,
        0.0005198909202590585
      ],
      "type": "VEC2"
    },
    {
      "bufferView": 0,
      "byteOffset": 3308292,
      "componentType": 5125,
      "count": 72921,
      "type": "SCALAR"
    }
  ],
  "asset": {
    "extras": {
      "author": "Tony3dtwin (https://sketchfab.com/Tony3dtwin)",
      "license": "SKETCHFAB Standard (https://sketchfab.com/licenses)",
      "source": "https://sketchfab.com/3d-models/florero1-1f2bde919a20458aab4e68e56a310c26",
      "title": "Florero1"
    },
    "generator": "Sketchfab-15.49.0",
    "version": "2.0"
  },
  "bufferViews": [
    {
      "buffer": 0,
      "byteLength": 3599976,
      "name": "floatBufferViews",
      "target": 34963
    },
    {
      "buffer": 0,
      "byteLength": 1733408,
      "byteOffset": 3599976,
      "byteStride": 8,
      "name": "floatBufferViews",
      "target": 34962
    },
    {
      "buffer": 0,
      "byteLength": 5200224,
      "byteOffset": 5333384,
      "byteStride": 12,
      "name": "floatBufferViews",
      "target": 34962
    }
  ],
  "buffers": [
    {
      "byteLength": 10533608,
      "uri": "scene.bin"
    }
  ],
  "extensionsUsed": [
    "KHR_materials_unlit"
  ],
  "images": [
    {
      "uri": "textures/tex_u1_v1_baseColor.jpeg"
    }
  ],
  "materials": [
    {
      "doubleSided": true,
      "extensions": {
        "KHR_materials_unlit": {}
      },
      "name": "tex_u1_v1",
      "pbrMetallicRoughness": {
        "baseColorTexture": {
          "index": 0
        },
        "metallicFactor": 0.0
      }
    }
  ],
  "meshes": [
    {
      "name": "Object_0",
      "primitives": [
        {
          "attributes": {
            "NORMAL": 1,
            "POSITION": 0,
            "TEXCOORD_0": 2
          },
          "indices": 3,
          "material": 0,
          "mode": 4
        }
      ]
    },
    {
      "name": "Object_1",
      "primitives": [
        {
          "attributes": {
            "NORMAL": 5,
            "POSITION": 4,
            "TEXCOORD_0": 6
          },
          "indices": 7,
          "material": 0,
          "mode": 4
        }
      ]
    },
    {
      "name": "Object_2",
      "primitives": [
        {
          "attributes": {
            "NORMAL": 9,
            "POSITION": 8,
            "TEXCOORD_0": 10
          },
          "indices": 11,
          "material": 0,
          "mode": 4
        }
      ]
    },
    {
      "name": "Object_3",
      "primitives": [
        {
          "attributes": {
            "NORMAL": 13,
            "POSITION": 12,
            "TEXCOORD_0": 14
          },
          "indices": 15,
          "material": 0,
          "mode": 4
        }
      ]
    }
  ],
  "nodes": [
    {
      "children": [
        1
      ],
      "matrix": [
        1.0,
        0.0,
        0.0,
        0.0,
        0.0,
        2.220446049250313e-16,
        -1.0,
        0.0,
        0.0,
        1.0,
        2.220446049250313e-16,
        0.0,
        0.0,
        0.0,
        0.0,
        1.0
      ],
      "name": "Sketchfab_model"
    },
    {
      "children": [
        2,
        3,
        4,
        5
      ],
      "name": "model.obj.cleaner.materialmerger.gles"
    },
    {
      "mesh": 0,
      "name": "Object_2"
    },
    {
      "mesh": 1,
      "name": "Object_3"
    },
    {
      "mesh": 2,
      "name": "Object_4"
    },
    {
      "mesh": 3,
      "name": "Object_5"
    }
  ],
  "samplers": [
    {
      "magFilter": 9729,
      "minFilter": 9987,
      "wrapS": 10497,
      "wrapT": 10497
    }
  ],
  "scene": 0,
  "scenes": [
    {
      "name": "Sketchfab_Scene",
      "nodes": [
        0
      ]
    }
  ],
  "textures": [
    {
      "sampler": 0,
      "source": 0
    }
  ]
}
